# xmcd
#
# Track frame offsets:
#	150
#	27157
#	48472
#	74252
#	99487
#	114862
#	135207
#	159837
#	182937
#	205337
#	223292
#	241467
#	265857
#
# Disc length: 3728 seconds
#
# Revision: 1
# Processed by: cddbd v1.4PL0 Copyright (c) Steve Scherf et al.
# Submitted via: audiograbber 1.81.03
#
DISCID=b40e8e0d
DTITLE=Snooky Pryor - Can't Stop Blowing
DYEAR=1999
DGENRE=Blues
TTITLE0=Slow Down
TTITLE1=I Got To Give It Up
TTITLE2=I Learnt My Lesson Well
TTITLE3=Ain't Nobody's Business
TTITLE4=Don't Worry About Me
TTITLE5=Got To Find My Baby
TTITLE6=Going Down Slow
TTITLE7=Someone To Love Me
TTITLE8=When Things Go Wrong With You
TTITLE9=I've Got My Eyes On You
TTITLE10=I Been Crucified
TTITLE11=I Heard The News
TTITLE12=Boots 'n' Saddle
EXTD=
EXTT0=
EXTT1=
EXTT2=
EXTT3=
EXTT4=
EXTT5=
EXTT6=
EXTT7=
EXTT8=
EXTT9=
EXTT10=
EXTT11=
EXTT12=
PLAYORDER=
